<?xml version="1.0" encoding="utf-8"?>
<!-- Generator: Adobe Illustrator 24.1.0, SVG Export Plug-In . SVG Version: 6.00 Build 0)  -->
<svg version="1.1" id="Layer_1" xmlns="http://www.w3.org/2000/svg" xmlns:xlink="http://www.w3.org/1999/xlink" x="0px" y="0px"
	 viewBox="0 0 12.6 8.2" style="enable-background:new 0 0 12.6 8.2;" xml:space="preserve">
<style type="text/css">
	.st0{fill:#0075B8;}
</style>
<g id="Layer_2_1_">
	<g id="Layer_1-2">
		<path class="st0" d="M12.6,4.1L8.5,8.2L7.9,7.6C7.7,7.5,7.7,7.4,7.7,7.2c0-0.1,0.1-0.3,0.2-0.3l1.5-1.5L9.8,5l0.4-0.3l-1,0.1
			c-0.3,0-0.7,0-1,0H0V3.3h8.1c0.3,0,0.7,0,1,0l1,0.1C9.9,3.2,9.6,3,9.4,2.8L7.9,1.3C7.8,1.2,7.7,1.1,7.7,1s0-0.3,0.2-0.4L8.4,0
			L12.6,4.1z"/>
	</g>
</g>
</svg>
