<svg id="Layer_1" data-name="Layer 1" xmlns="http://www.w3.org/2000/svg" viewBox="0 0 600.76 108.05"><defs><style>.cls-1{fill:#022c41;}.cls-2{fill:none;stroke:#022c41;stroke-width:0.54px;}.cls-3{fill:#999;}</style></defs><path class="cls-1" d="M24.43,67.56a8.61,8.61,0,0,0,8.16,5.26c4.57,0,7.17-2.35,7.17-5.82,0-3.89-3.65-4.69-9.7-7.85-6.49-3.39-10.27-6.61-10.27-12.79,0-7,6-12.49,15.58-12.49,5.32,0,9.09,1.8,12.05,5.81L41.86,45a6.88,6.88,0,0,0-6.61-3.83c-3.83,0-6.25,2.16-6.25,5.07,0,4.07,4,5.06,8.91,7.29,7.41,3.4,11,7.6,11,13.17,0,8-5.75,13.6-15.64,13.6-6.86,0-11.74-2.48-14.09-6.8Z" transform="translate(-19.18 -12.3)"/><path class="cls-1" d="M90.26,79.12l.13-4.26C88,78.63,84.88,80.3,80.19,80.3c-7.67,0-13.11-6.12-13.11-16s5-15.83,13.42-15.83a10.86,10.86,0,0,1,10,5.87V49.51h8.16V79.12ZM83.34,55.63c-4.7,0-7.54,3.28-7.54,8.65s2.78,8.47,7.48,8.47,7.48-3.09,7.48-8.47S87.73,55.63,83.34,55.63Z" transform="translate(-19.18 -12.3)"/><path class="cls-1" d="M119.75,32.33H128V49.2a38.52,38.52,0,0,1-.37,5.44c2.47-3.77,5.5-6.12,10.26-6.12,8.41,0,13.41,5.81,13.41,15.83,0,9.83-5.37,16-13,16-4.7,0-7.85-1.67-10.2-5.44l.06,4.26h-8.34Zm15.33,40.42c4.7,0,7.48-3.15,7.48-8.47s-2.85-8.65-7.54-8.65c-4.39,0-7.42,3.15-7.42,8.65S130.38,72.75,135.08,72.75Z" transform="translate(-19.18 -12.3)"/><path class="cls-1" d="M192.19,79.12l.13-4.26c-2.35,3.77-5.5,5.44-10.2,5.44-7.67,0-13.11-6.12-13.11-16s5-15.83,13.42-15.83a10.86,10.86,0,0,1,9.95,5.87V49.51h8.16V79.12Zm-6.92-23.49c-4.7,0-7.54,3.28-7.54,8.65s2.78,8.47,7.48,8.47,7.48-3.09,7.48-8.47S189.66,55.63,185.27,55.63Z" transform="translate(-19.18 -12.3)"/><path class="cls-1" d="M275.33,39.27c-11.05,0-18.44,7.81-18.44,18.74,0,11.3,7.74,18.69,17.91,18.69a21.78,21.78,0,0,0,13.66-4.91l-.06,4.49a25.8,25.8,0,0,1-13.42,4c-12.71,0-22.23-8.92-22.23-22.23,0-13,9.69-22.11,22.23-22.11a21.69,21.69,0,0,1,13.77,4.44l-.12,4.26C284.49,41.05,280.3,39.27,275.33,39.27Z" transform="translate(-19.18 -12.3)"/><path class="cls-1" d="M325.88,74.45a9.28,9.28,0,0,1-9,5.79c-7.33,0-12.24-5.5-12.24-13.77s5-13.89,11.89-13.89c4.31,0,7.57,1.89,9.34,5.61V53.52h3.55v25.6h-3.55Zm-8.64,2.48c5.15,0,8.7-3.9,8.7-11,0-6.38-3.43-10.1-8.64-10.1s-8.68,4-8.68,10.76S311.75,76.93,317.24,76.93Z" transform="translate(-19.18 -12.3)"/><path class="cls-1" d="M349.41,53.52h3.42v4.79A10.16,10.16,0,0,1,362,52.58c7.21,0,12,5.49,12,13.83,0,8.75-4.91,13.83-11.82,13.83a10.08,10.08,0,0,1-9.35-5.85V92h-3.42Zm12.23,2.31c-5.26,0-8.75,3.66-8.75,10.34,0,6.92,4,10.76,9.11,10.76s8.16-3.72,8.16-10.46S367,55.83,361.64,55.83Z" transform="translate(-19.18 -12.3)"/><path class="cls-1" d="M393.92,40.81a2.72,2.72,0,1,1,0,5.44,2.68,2.68,0,0,1-2.72-2.72A2.71,2.71,0,0,1,393.92,40.81Zm-1.83,12.71h3.66v25.6h-3.66Z" transform="translate(-19.18 -12.3)"/><path class="cls-1" d="M412,56.54v-3h4.73V43h3.49V53.52h5.14v3h-5.14V79.12h-3.49V56.54Z" transform="translate(-19.18 -12.3)"/><path class="cls-1" d="M460,74.45a9.28,9.28,0,0,1-9,5.79c-7.33,0-12.24-5.5-12.24-13.77s5-13.89,11.89-13.89c4.31,0,7.56,1.89,9.34,5.61V53.52h3.55v25.6H460Zm-8.64,2.48c5.15,0,8.7-3.9,8.7-11,0-6.38-3.43-10.1-8.64-10.1s-8.68,4-8.68,10.76S445.83,76.93,451.32,76.93Z" transform="translate(-19.18 -12.3)"/><path class="cls-1" d="M483.72,79.12V34.37h3.67V79.12Z" transform="translate(-19.18 -12.3)"/><line class="cls-2" x1="209.32" y1="11.3" x2="209.32" y2="86.87"/><path class="cls-3" d="M566.85,74.35c-1.15,0-11.37.2-18.31,7.45,0-2.57.09-25.83.1-27.36v-.1a1.57,1.57,0,0,1,0-.25c-.14-9.4-1.22-29.22-4.43-33.13a.09.09,0,0,0-.07,0s0,0,0,0a.06.06,0,0,0-.05.07V71.83a28.91,28.91,0,0,0-7,4.6V30.69c0-.09-.38-8,5.79-11,0,0,0,0,0,0a0,0,0,0,0,0,0,5.41,5.41,0,0,0-.58,0c-1.68,0-9.87,1.05-9.87,11.11v74.79c0,9.63,5.46,10.38,7.14,10.38a3.13,3.13,0,0,0,.57,0s0,0,0,0,0,0,0,0c-3.56-1.23-3.05-10.18-3.05-10.27v-23a45.11,45.11,0,0,1,7-5.81V95.39a.08.08,0,0,0,.05.08h0a.1.1,0,0,0,.08,0c.09-.14,8.58-14.08,22.74-20.92a.1.1,0,0,0,0-.1.1.1,0,0,0-.08-.06Z" transform="translate(-19.18 -12.3)"/><path class="cls-3" d="M548.55,55.83v0" transform="translate(-19.18 -12.3)"/><path class="cls-3" d="M548.5,53.33c0-.27,0-.58,0-.93,0,.35,0,.66,0,.93" transform="translate(-19.18 -12.3)"/><path class="cls-3" d="M548.55,57c0,4.44,0,12.2-.07,18.5,0-6.3,0-14.07.07-18.5" transform="translate(-19.18 -12.3)"/><path class="cls-3" d="M554.64,21.94c1.88.19,6.07.47,9.27.62,2.55.13,4.54.15,7.11.19h.92c12.51.15,19.57,1.34,21.58,3.66a2.39,2.39,0,0,1,.58,1.94c-.21,1.49-.21,6-35.55,9.94-2.63.34-5.87.74-7.08,1.39,0,0,0,0,0,.07s0,0,0,0,3.06.15,7.41.15c4.75,0,9.19-.16,13.19-.49a5.73,5.73,0,0,0,5.13,3.73,4.18,4.18,0,0,0,.5,0,5.72,5.72,0,0,0,4.8-5.13c7.45-1.57,15.72-4.68,16.61-8.67a5,5,0,0,0-1.32-4.58c-1.85-2-6.1-4.74-21.48-4.52l-25.85.45s0,0-.05.05v0c0,.44,2.6,1,4.21,1.15" transform="translate(-19.18 -12.3)"/><path class="cls-3" d="M596.86,63.51h-.25c-.08,0-7.84,1-16.82,2.21,6.31-2.39,10.33-7.45,10.59-11.08.28-3.81-1.86-6.65-6.35-8.43-3.31-1.43-8.27-2.16-14.73-2.16a96.48,96.48,0,0,0-10.87.63.1.1,0,0,0-.09.1.09.09,0,0,0,.08.09,31.15,31.15,0,0,0,6.07.86c.59,0,1.17,0,1.79.07.79,0,1.63.08,2.6.1,8.63.25,12.94,1.9,15.16,4.75a5.27,5.27,0,0,1,.88,4.62c-.9,4-5.78,9.1-16.78,11.6-1.48.32-14.51,3.21-15.46,7.24,0,.17,0,.18,0,.24a.1.1,0,0,0,.1.06s.09,0,.36-.15c4.24-2,14.11-5.42,32.09-5.23h14.68A.09.09,0,0,0,600,69c.07-.3.55-2.91-.66-4.4a3,3,0,0,0-2.46-1" transform="translate(-19.18 -12.3)"/><path class="cls-3" d="M604.84,51.41c1.8-1.37,3.23-1.43,3.28-7.6a48.39,48.39,0,0,1,6-2.86c.1.17.19.34.27.5a12.51,12.51,0,0,1,1.49,5.61c.47,8.23-5.9,13.16-7,13.94-.31-3.12-2.37-3.77-4.05-3.77a9.2,9.2,0,0,0-2.86.52c-2.82.5-11.6,4-13.34,4.67l-.06,0a.14.14,0,0,0-.09.17.16.16,0,0,0,.16.11c8.23-1.54,12.4-1.84,12.43-1.85A3.34,3.34,0,0,1,604.19,62c1.57,1.94.79,5.74.79,5.78a.11.11,0,0,0,0,.13.12.12,0,0,0,.1,0h0c9.53-3.72,13-9.71,14.13-14.09a18.74,18.74,0,0,0,.26-8.71c-1.38-6-5.95-9.62-9.54-11.63-4.84-2.73-7.61-2.76-7.64-2.76a.05.05,0,0,0,0,.05,0,0,0,0,0,0,.06c5.73,2.7,8.62,5.56,10,7.5a34.82,34.82,0,0,0-4.49,2.06c-.85-4.49-4.12-8.06-7.88-8.94,0,0-.07,0-.07,0s0,.06,0,.07c3,2.13,5.41,7.32,5.41,11.5a45.26,45.26,0,0,1-.55,8.37" transform="translate(-19.18 -12.3)"/><path class="cls-3" d="M542.51,12.32c-.38,0-.76,0-1.13,0-5.9,0-10.56,1.81-13.85,5.4C522,23.76,522,33.16,522.08,35.37V97.72c-.56,21.68-17.67,20.85-25.42,21.35a8.21,8.21,0,0,0,0,1.11.11.11,0,0,0,.1.09c.39,0,6.94.08,7.32.08,5.9,0,13.06-1.32,18-5.56,5.91-5.11,5.43-16.8,5.48-17.51,0,0,0-.94,0-1l-.07-45.86V34.77c0-20.22,14.88-22.24,15-22.25a.11.11,0,0,0,.09-.11A.1.1,0,0,0,542.51,12.32Z" transform="translate(-19.18 -12.3)"/></svg>