<?xml version="1.0" standalone="no"?>
<!DOCTYPE svg PUBLIC "-//W3C//DTD SVG 20010904//EN"
 "http://www.w3.org/TR/2001/REC-SVG-20010904/DTD/svg10.dtd">
<svg version="1.0" xmlns="http://www.w3.org/2000/svg"
 width="640.000000pt" height="640.000000pt" viewBox="0 0 640.000000 640.000000"
 preserveAspectRatio="xMidYMid meet">
<metadata>
Created by potrace 1.11, written by Peter Selinger 2001-2013
</metadata>
<g transform="translate(0.000000,640.000000) scale(0.100000,-0.100000)"
fill="#000000" stroke="none">
<path d="M3192 5260 c-15 -37 -108 -263 -147 -355 -18 -44 -72 -174 -118 -290
-108 -266 -344 -844 -357 -870 -5 -11 -25 -60 -45 -110 -78 -193 -224 -552
-245 -599 l-21 -50 -48 120 c-27 65 -102 247 -166 404 -65 157 -136 330 -158
384 l-41 100 -29 -65 c-16 -35 -47 -109 -69 -164 -22 -55 -46 -113 -53 -130
-12 -26 -82 -196 -292 -705 -30 -74 -61 -148 -69 -165 -11 -25 -194 -470 -309
-750 -81 -197 -286 -692 -295 -710 -22 -49 -70 -168 -70 -176 0 -5 1051 -9
2539 -9 l2540 0 -25 63 c-14 34 -31 76 -39 92 -7 17 -42 102 -78 190 -36 88
-112 275 -170 415 -58 140 -134 327 -170 415 -36 88 -104 255 -152 370 -48
116 -136 332 -197 480 -60 149 -116 284 -123 300 -7 17 -27 66 -45 110 -18 44
-38 94 -45 110 -7 17 -39 93 -70 170 -31 77 -59 144 -62 148 -5 8 -40 -59 -47
-88 -2 -5 -8 -21 -13 -35 -6 -14 -33 -79 -61 -145 -27 -66 -91 -221 -142 -345
-50 -124 -98 -238 -105 -255 -8 -16 -23 -52 -34 -80 -18 -48 -19 -49 -29 -25
-28 71 -145 359 -157 385 -7 17 -32 77 -55 135 -23 58 -45 114 -50 125 -23 53
-72 172 -120 290 -28 72 -58 144 -65 160 -14 31 -461 1125 -475 1160 -8 19 -8
19 -18 -5z m638 -2295 c133 -324 256 -624 273 -665 16 -41 32 -78 36 -82 3 -4
51 102 105 235 55 133 107 260 117 282 9 22 58 139 107 259 l90 220 17 -40 c9
-21 73 -176 142 -344 69 -168 143 -348 165 -400 22 -52 68 -165 103 -250 35
-85 119 -291 188 -457 114 -278 123 -303 103 -304 -11 0 -549 -1 -1195 -1
l-1175 -1 -79 194 c-44 107 -85 208 -92 224 -15 35 -90 216 -182 440 -36 88
-71 174 -78 190 -8 17 -23 53 -34 81 l-20 52 160 388 c88 214 223 542 300 729
77 187 144 349 149 360 10 22 146 355 162 395 8 21 35 -37 202 -445 106 -259
302 -735 436 -1060z m-1930 114 c28 -68 55 -133 60 -144 9 -19 80 -193 177
-430 24 -60 51 -126 60 -145 8 -19 19 -44 24 -55 94 -221 358 -879 355 -883
-7 -7 -1455 -6 -1462 1 -4 4 258 656 331 822 7 17 66 158 130 315 64 157 125
304 136 327 10 23 19 47 19 53 0 5 4 18 10 28 8 15 21 44 50 117 28 69 54 124
56 122 2 -2 26 -59 54 -128z"/>
</g>
</svg>
